<?xml version="1.0" encoding="UTF-8" standalone="no"?>
<svg
   xmlns:dc="http://purl.org/dc/elements/1.1/"
   xmlns:cc="http://creativecommons.org/ns#"
   xmlns:rdf="http://www.w3.org/1999/02/22-rdf-syntax-ns#"
   xmlns:svg="http://www.w3.org/2000/svg"
   xmlns="http://www.w3.org/2000/svg"
   viewBox="0 0 634.66669 897.33331"
   height="897.33331"
   width="634.66669"
   xml:space="preserve"
   id="svg2"
   version="1.1"><metadata
     id="metadata8"><rdf:RDF><cc:Work
         rdf:about=""><dc:format>image/svg+xml</dc:format><dc:type
           rdf:resource="http://purl.org/dc/dcmitype/StillImage" /></cc:Work></rdf:RDF></metadata><defs
     id="defs6" /><g
     transform="matrix(1.3333333,0,0,-1.3333333,0,897.33333)"
     id="g10"><g
       transform="scale(0.1)"
       id="g12"><path
         id="path14"
         style="fill:#ffffff;fill-opacity:1;fill-rule:nonzero;stroke:none"
         d="M 190.652,6726.9 C 85.9805,6726.9 0.390625,6641.3 0.390625,6536.64 V 1399.6 c 0,-104.61 75.281275,-230.99 167.406375,-280.68 L 2157.32,44.043 c 92.07,-49.69144 243.42,-51.15238 336.45,-3.1758 L 4587.8,1122.1 c 93.03,48.1 169.04,172.89 169.04,277.5 v 5137.04 c 0,104.66 -85.54,190.26 -190.14,190.26 H 190.652" /><path
         id="path16"
         style="fill:#617878;fill-opacity:1;fill-rule:nonzero;stroke:none"
         d="m 368.832,6453.25 c -96.152,0 -174.781,-78.63 -174.781,-174.77 V 1559.79 c 0,-96.2 69.16,-212.14 153.797,-257.87 L 2175.36,314.637 c 84.59,-45.727 223.62,-47.082 309,-2.949 l 1923.6,993.182 c 85.44,44.13 155.33,158.72 155.33,254.92 v 4718.69 c 0,96.14 -78.74,174.77 -174.84,174.77 H 368.832" /><path
         id="path18"
         style="fill:#0029fa;fill-opacity:1;fill-rule:nonzero;stroke:none"
         d="m 518.707,1680.51 c -82.43,-49.46 -149.875,-100.97 -149.875,-114.36 0,-13.61 69.203,-61.95 153.734,-107.55 L 2179.33,563.434 c 84.53,-45.606 223.63,-46.957 308.99,-2.829 l 1744.82,900.825 c 85.43,44.15 155.3,158.85 155.3,254.94 v 2111.2 c 0,96.1 -67.49,134.29 -149.85,84.87 L 518.707,1680.51" /><path
         id="path20"
         style="fill:#ffffff;fill-opacity:1;fill-rule:nonzero;stroke:none"
         d="m 4238.59,5058.79 c 82.36,49.39 149.86,168.42 149.86,264.57 v 780.34 c 0,96.15 -78.63,174.78 -174.83,174.78 H 543.598 c -96.141,0 -174.766,-78.63 -174.766,-174.78 V 2914.9 c 0,-96.1 67.449,-134.34 149.922,-84.86 L 4238.59,5058.79" /><path
         id="path22"
         style="fill:#0029fa;fill-opacity:1;fill-rule:nonzero;stroke:none"
         d="M 819.391,5260.76 V 4728.5 H 1434.7 v 532.26 h 166.1 V 3988.62 h -166.1 v 596.44 H 819.391 V 3988.62 H 655.188 v 1272.14 h 164.203" /><path
         id="path24"
         style="fill:#0029fa;fill-opacity:1;fill-rule:nonzero;stroke:none"
         d="m 844.988,5982.08 h -2.078 l -117.758,-63.56 -17.711,69.82 147.977,79.2 h 78.152 v -677.35 h -88.582 v 591.89" /><path
         id="path26"
         style="fill:#0029fa;fill-opacity:1;fill-rule:nonzero;stroke:none"
         d="m 1620.32,6009.18 c -77.11,0 -132.34,-68.78 -132.34,-164.64 0,-84.42 51.07,-143.82 130.26,-143.82 61.47,0 109.42,30.24 133.39,70.87 5.2,8.33 8.32,18.76 8.32,33.34 0,115.67 -42.71,204.25 -138.59,204.25 z m -165.68,-554.37 c 19.79,-2.1 42.73,0 73.98,3.12 53.14,7.3 103.17,29.18 141.72,65.64 44.8,40.65 77.12,100.04 89.61,180.29 h -3.12 c -37.51,-45.86 -91.7,-72.94 -159.43,-72.94 -121.92,0 -200.08,91.69 -200.08,207.37 0,128.17 92.74,240.71 231.34,240.71 138.6,0 224.05,-112.54 224.05,-285.53 0,-149.02 -50.02,-253.21 -116.72,-317.82 -52.1,-51.08 -124,-82.33 -196.94,-90.66 -33.35,-5.22 -62.53,-6.25 -84.41,-5.22 v 75.04" /><path
         id="path28"
         style="fill:#0029fa;fill-opacity:1;fill-rule:nonzero;stroke:none"
         d="m 2178.91,5495.44 c 26.06,-16.67 86.49,-42.73 150.05,-42.73 117.76,0 154.22,75.04 153.18,131.31 -1.04,94.82 -86.49,135.47 -175.05,135.47 h -51.06 v 68.78 h 51.06 c 66.69,0 151.09,34.39 151.09,114.62 0,54.19 -34.38,102.12 -118.79,102.12 -54.19,0 -106.29,-23.97 -135.48,-44.81 l -23.96,66.69 c 35.43,26.06 104.21,52.11 177.15,52.11 133.39,0 193.82,-79.2 193.82,-161.52 0,-69.82 -41.69,-129.21 -125.04,-159.44 v -2.09 c 83.35,-16.66 151.1,-79.19 151.1,-174.02 0,-108.37 -84.41,-203.19 -246.96,-203.19 -76.07,0 -142.77,23.96 -176.11,45.83 l 25,70.87" /><path
         id="path30"
         style="fill:#0029fa;fill-opacity:1;fill-rule:nonzero;stroke:none"
         d="m 2912.55,5390.2 v 56.26 l 71.9,69.83 c 172.99,164.64 251.14,252.17 252.18,354.3 0,68.76 -33.34,132.34 -134.42,132.34 -61.49,0 -112.55,-31.27 -143.82,-57.31 l -29.16,64.61 c 46.89,39.59 113.59,68.76 191.73,68.76 145.89,0 207.38,-100.04 207.38,-196.95 0,-125.04 -90.67,-226.12 -233.43,-363.67 l -54.19,-50.02 v -2.08 h 304.3 v -76.07 h -432.47" /><path
         id="path32"
         style="fill:#b00000;fill-opacity:1;fill-rule:nonzero;stroke:none"
         d="m 368.832,1901.3 c 0,-38.47 27.004,-53.78 59.961,-34.05 L 4328.44,4203.91 c 33.01,19.73 60.01,67.32 60.01,105.79 v 524.34 c 0,38.45 -27,53.71 -60.01,33.91 L 428.793,2531.42 c -32.957,-19.75 -59.961,-67.4 -59.961,-105.86 V 1901.3" /><path
         id="path34"
         style="fill:#ffffff;fill-opacity:1;fill-rule:nonzero;stroke:none"
         d="m 3073.87,2868.45 v -532.27 h 615.31 v 532.27 h 166.1 V 1596.31 h -166.1 v 596.44 h -615.31 v -596.44 h -164.21 v 1272.14 h 164.21" /></g></g></svg>